<svg width="80" height="80" viewBox="0 0 80 80" fill="none" xmlns="http://www.w3.org/2000/svg">
  <path d="M65 65C66.3261 65 67.5979 64.4732 68.5355 63.5355C69.4732 62.5979 70 61.3261 70 60V25C70 23.6739 69.4732 22.4021 68.5355 21.4645C67.5979 20.5268 66.3261 20 65 20H55L50 10H30L25 20H15C13.6739 20 12.4021 20.5268 11.4645 21.4645C10.5268 22.4021 10 23.6739 10 25V60C10 61.3261 10.5268 62.5979 11.4645 63.5355C12.4021 64.4732 13.6739 65 15 65H65Z" stroke="#3366FF" stroke-width="4" stroke-linecap="round" stroke-linejoin="round"/>
  <path d="M40 55C47.3638 55 53.3333 49.0304 53.3333 41.6667C53.3333 34.3029 47.3638 28.3333 40 28.3333C32.6362 28.3333 26.6667 34.3029 26.6667 41.6667C26.6667 49.0304 32.6362 55 40 55Z" stroke="#3366FF" stroke-width="4" stroke-linecap="round" stroke-linejoin="round"/>
</svg>