<?xml version="1.0" encoding="UTF-8" standalone="no"?>
<!DOCTYPE svg PUBLIC "-//W3C//DTD SVG 1.1//EN" "http://www.w3.org/Graphics/SVG/1.1/DTD/svg11.dtd">
<svg xmlns="http://www.w3.org/2000/svg" version="1.1" viewBox="0.00 0.00 600.00 600.00">
<g stroke-width="2.00" fill="none" stroke-linecap="butt">
<path stroke="#9796bb" vector-effect="non-scaling-stroke" d="
  M 113.46 329.03
  A 0.96 0.95 -26.2 0 0 112.32 328.65
  Q 91.87 336.39 78.55 353.29
  C 71.05 362.80 66.92 372.70 64.99 384.50
  Q 60.59 411.40 76.05 432.76
  C 88.97 450.60 108.38 462.03 129.41 467.36
  Q 156.15 474.14 180.62 461.93
  Q 202.02 451.25 212.03 429.80
  C 224.30 403.53 221.11 376.70 208.32 351.15
  Q 180.24 295.05 175.99 286.74
  C 169.99 274.99 167.09 263.93 172.67 251.20
  Q 180.93 232.35 200.51 227.79
  C 221.78 222.83 248.15 240.26 249.14 262.82
  C 249.36 267.80 248.39 272.28 246.39 277.22
  A 1.13 1.12 22.9 0 0 246.98 278.66
  L 248.40 279.30
  A 0.80 0.79 -65.5 0 0 249.45 278.90
  L 265.49 243.22
  A 0.57 0.56 -66.0 0 0 265.21 242.48
  C 258.92 239.56 254.60 237.85 249.54 234.06
  Q 239.94 226.87 226.85 221.00
  C 198.25 208.17 168.49 219.48 154.22 246.75
  Q 142.22 269.68 153.71 293.09
  Q 159.53 304.95 188.60 363.12
  C 198.60 383.12 200.05 409.04 186.90 428.11
  C 177.54 441.67 165.72 450.49 149.81 453.07
  Q 135.02 455.47 121.50 451.48
  C 99.86 445.09 83.37 431.78 75.73 409.96
  C 64.62 378.26 86.68 346.05 114.16 331.83
  A 0.83 0.83 0.0 0 0 114.48 330.66
  L 113.46 329.03"
/>
<path stroke="#9796bb" vector-effect="non-scaling-stroke" d="
  M 362.68 404.93
  C 360.90 403.41 359.25 404.21 357.25 404.72
  A 1.44 1.40 -38.0 0 1 356.26 404.61
  Q 354.22 403.57 351.51 404.33
  A 0.32 0.31 81.5 0 1 351.11 404.03
  Q 351.00 399.50 350.16 394.33
  C 349.39 389.58 343.47 390.77 343.42 395.50
  C 343.36 401.26 344.28 407.25 344.00 413.17
  A 0.34 0.33 -66.4 0 1 343.43 413.40
  Q 343.42 413.39 339.53 409.38
  C 337.15 406.93 333.33 408.13 333.28 411.72
  A 2.93 2.91 29.4 0 0 333.73 413.31
  L 346.47 433.70
  A 2.49 2.48 -14.0 0 0 348.40 434.86
  C 352.10 435.10 361.16 435.98 364.11 433.24
  Q 366.89 430.65 367.66 427.41
  Q 368.65 423.30 369.84 414.18
  C 370.15 411.81 369.89 409.71 370.38 407.47
  C 371.07 404.33 371.15 400.03 370.91 397.28
  A 2.45 2.44 -88.4 0 0 368.83 395.07
  Q 364.58 394.43 364.00 398.80
  Q 363.61 401.78 363.14 404.76
  A 0.28 0.28 0.0 0 1 362.68 404.93"
/>
<path stroke="#ffba8a" vector-effect="non-scaling-stroke" d="
  M 388.74 412.87
  Q 388.74 421.36 382.68 428.67
  A 1.46 1.45 -80.2 0 0 384.30 430.97
  Q 386.18 430.28 387.26 428.47
  Q 392.09 420.32 392.09 412.87
  Q 392.09 405.41 387.24 397.27
  Q 386.17 395.46 384.29 394.77
  A 1.46 1.45 80.2 0 0 382.67 397.06
  Q 388.73 404.37 388.74 412.87"
/>
<path stroke="#9796bb" vector-effect="non-scaling-stroke" d="
  M 326.30 396.64
  L 319.50 396.64
  A 0.10 0.10 0.0 0 0 319.40 396.75
  L 319.42 397.01
  A 0.18 0.18 0.0 0 0 319.60 397.18
  Q 322.15 397.22 322.14 399.97
  Q 322.12 413.29 322.13 419.09
  A 0.49 0.49 0.0 0 1 321.28 419.42
  L 299.39 395.69
  A 0.21 0.21 0.0 0 0 299.03 395.84
  Q 299.28 407.20 299.17 420.58
  C 299.14 423.59 299.29 424.18 296.55 424.99
  A 0.18 0.18 0.0 0 0 296.60 425.35
  L 303.63 425.40
  A 0.19 0.19 0.0 0 0 303.80 425.12
  L 303.77 425.06
  A 0.22 0.22 0.0 0 0 303.56 424.84
  Q 301.95 424.72 301.40 423.70
  A 2.86 2.85 -59.4 0 1 301.05 422.33
  L 301.05 402.79
  A 0.53 0.53 0.0 0 1 301.97 402.43
  L 323.56 425.81
  A 0.30 0.30 0.0 0 0 324.08 425.60
  Q 323.72 416.69 323.92 399.36
  Q 323.94 398.02 324.43 397.90
  Q 325.18 397.71 326.41 397.31
  A 0.34 0.34 0.0 0 0 326.30 396.64"
/>
<path stroke="#9796bb" vector-effect="non-scaling-stroke" d="
  M 486.03 424.81
  A 0.31 0.31 0.0 0 0 486.09 425.43
  L 492.57 425.43
  A 0.28 0.28 0.0 0 0 492.78 424.96
  L 491.75 423.84
  A 1.06 1.05 35.7 0 1 491.56 422.70
  L 494.51 416.13
  A 0.71 0.71 0.0 0 1 495.16 415.71
  L 505.42 415.71
  A 0.75 0.74 78.8 0 1 506.11 416.18
  L 508.78 422.86
  A 0.56 0.35 46.1 0 1 508.82 423.05
  Q 508.83 424.07 507.50 424.80
  A 0.33 0.33 0.0 0 0 507.66 425.42
  L 515.39 425.42
  A 0.21 0.21 0.0 0 0 515.43 425.00
  Q 512.89 424.53 512.16 422.81
  Q 504.01 403.56 500.99 396.01
  A 0.31 0.31 0.0 0 0 500.42 396.01
  Q 495.46 408.13 489.75 421.45
  C 488.86 423.54 488.19 424.38 486.03 424.81"
/>
<path stroke="#9796bb" vector-effect="non-scaling-stroke" d="
  M 274.03 404.04
  L 273.71 399.77
  A 1.62 1.61 11.2 0 0 272.82 398.45
  Q 264.73 394.43 257.82 396.85
  C 250.82 399.31 247.80 405.39 248.30 412.59
  C 249.09 423.98 260.40 428.56 270.18 424.63
  Q 273.16 423.43 274.81 421.38
  A 2.73 2.62 70.4 0 0 275.37 420.14
  Q 275.39 420.02 275.41 414.25
  Q 275.41 412.80 276.90 412.08
  A 0.18 0.18 0.0 0 0 276.82 411.74
  L 270.84 411.74
  A 0.18 0.18 0.0 0 0 270.76 412.09
  L 271.76 412.54
  A 1.71 1.70 -78.0 0 1 272.77 414.10
  L 272.77 419.99
  A 2.49 2.49 0.0 0 1 271.60 422.10
  Q 265.50 425.88 260.04 424.30
  C 251.69 421.88 249.53 411.81 252.47 404.64
  Q 255.66 396.89 264.23 397.30
  Q 271.36 397.64 273.74 404.11
  A 0.15 0.15 0.0 0 0 274.03 404.04"
/>
<path stroke="#9796bb" vector-effect="non-scaling-stroke" d="
  M 396.3902 410.9245
  A 16.32 15.18 -179.7 0 0 412.6305 426.1898
  A 16.32 15.18 -179.7 0 0 429.0298 411.0955
  A 16.32 15.18 -179.7 0 0 412.7895 395.8302
  A 16.32 15.18 -179.7 0 0 396.3902 410.9245"
/>
<path stroke="#9796bb" vector-effect="non-scaling-stroke" d="
  M 221.17 397.16
  L 222.44 398.53
  A 1.65 1.63 -65.6 0 1 222.87 399.69
  Q 222.82 401.41 222.83 421.94
  C 222.84 423.73 222.11 424.40 220.53 424.83
  A 0.31 0.31 0.0 0 0 220.61 425.43
  L 228.14 425.43
  A 0.28 0.28 0.0 0 0 228.18 424.87
  C 225.16 424.41 225.63 422.16 225.64 419.55
  Q 225.68 409.92 225.64 399.71
  Q 225.63 397.42 228.10 397.16
  A 0.23 0.22 87.3 0 0 228.30 396.93
  L 228.30 396.62
  A 0.06 0.05 -90.0 0 0 228.25 396.56
  L 221.44 396.56
  A 0.36 0.36 0.0 0 0 221.17 397.16"
/>
<path stroke="#9796bb" vector-effect="non-scaling-stroke" d="
  M 443.99 396.98
  L 446.54 398.12
  A 1.31 1.30 0.8 0 1 447.21 398.80
  L 459.12 425.93
  A 0.32 0.32 0.0 0 0 459.70 425.93
  Q 464.21 415.35 470.54 401.51
  C 471.56 399.26 471.89 397.67 474.67 397.02
  A 0.23 0.23 0.0 0 0 474.62 396.57
  L 467.76 396.57
  A 0.30 0.30 0.0 0 0 467.64 397.14
  Q 469.72 398.01 468.66 400.40
  Q 466.39 405.56 460.22 420.60
  A 0.41 0.41 0.0 0 1 459.46 420.59
  L 450.85 399.07
  A 1.23 1.23 0.0 0 1 451.50 397.48
  L 452.31 397.12
  A 0.29 0.29 0.0 0 0 452.19 396.57
  L 444.08 396.57
  A 0.22 0.21 -32.7 0 0 443.99 396.98"
/>
<path stroke="#ffba8a" vector-effect="non-scaling-stroke" d="
  M 382.01 413.01
  C 382.00 416.76 380.01 420.70 377.87 423.92
  A 1.27 1.27 0.0 0 0 378.41 425.78
  L 378.50 425.82
  A 1.97 1.96 -58.6 0 0 380.83 425.25
  C 384.06 421.23 385.01 417.71 385.02 413.01
  C 385.03 408.31 384.09 404.79 380.87 400.76
  A 1.97 1.96 58.8 0 0 378.55 400.18
  L 378.46 400.22
  A 1.27 1.27 0.0 0 0 377.91 402.08
  C 380.04 405.30 382.01 409.25 382.01 413.01"
/>
<path stroke="#ffba8a" vector-effect="non-scaling-stroke" d="
  M 375.27 413.09
  C 375.26 415.11 374.25 416.79 373.31 418.46
  A 1.52 1.46 -80.9 0 0 374.86 420.69
  C 377.28 420.14 378.70 414.76 378.71 413.11
  C 378.72 411.45 377.35 406.05 374.94 405.48
  A 1.52 1.46 81.5 0 0 373.37 407.70
  C 374.29 409.38 375.29 411.07 375.27 413.09"
/>
<path stroke="#9796bb" vector-effect="non-scaling-stroke" d="
  M 356.07 418.74
  Q 353.05 421.26 350.53 417.98
  A 2.17 2.17 0.0 0 1 350.09 416.83
  L 348.37 394.34
  A 1.04 1.04 0.0 0 0 347.25 393.38
  L 346.74 393.42
  A 1.36 1.35 -3.1 0 0 345.49 394.81
  L 346.12 414.68
  A 3.09 3.06 -74.9 0 0 347.55 417.19
  C 350.19 418.87 353.17 421.13 353.01 424.33
  A 0.82 0.82 0.0 0 1 351.39 424.45
  C 350.64 420.57 346.23 419.30 343.78 416.64
  Q 339.98 412.52 337.53 410.39
  A 1.39 1.38 -77.9 0 0 335.30 411.84
  Q 335.34 411.97 336.07 413.19
  Q 339.24 418.45 342.00 423.00
  C 343.83 426.02 346.25 428.63 347.93 432.03
  A 1.53 1.53 0.0 0 0 349.20 432.88
  Q 352.32 433.10 358.60 432.93
  C 362.26 432.83 364.62 430.78 365.49 427.70
  C 366.74 423.30 367.87 415.73 368.11 409.41
  Q 368.20 407.03 368.91 403.37
  A 4.67 4.61 51.0 0 0 369.00 402.46
  L 368.99 397.99
  A 1.17 1.17 0.0 0 0 367.12 397.06
  Q 366.29 397.68 366.05 399.02
  Q 364.70 406.60 364.03 414.37
  Q 363.74 417.75 363.06 418.54
  C 361.13 420.79 359.13 419.87 356.97 418.66
  A 0.80 0.79 39.7 0 0 356.07 418.74"
/>
<path stroke="#9796bb" vector-effect="non-scaling-stroke" d="
  M 355.7382 407.4571
  A 1.71 1.71 0.0 0 0 354.0074 405.7681
  L 353.6274 405.7728
  A 1.71 1.71 0.0 0 0 351.9385 407.5035
  L 352.0418 415.9629
  A 1.71 1.71 0.0 0 0 353.7726 417.6519
  L 354.1526 417.6472
  A 1.71 1.71 0.0 0 0 355.8415 415.9165
  L 355.7382 407.4571"
/>
<path stroke="#9796bb" vector-effect="non-scaling-stroke" d="
  M 361.9623 407.9860
  A 1.93 1.93 0.0 0 0 360.0189 406.0695
  L 359.8389 406.0708
  A 1.93 1.93 0.0 0 0 357.9224 408.0142
  L 357.9777 415.9340
  A 1.93 1.93 0.0 0 0 359.9211 417.8505
  L 360.1011 417.8492
  A 1.93 1.93 0.0 0 0 362.0176 415.9058
  L 361.9623 407.9860"
/>
<path stroke="#9796bb" vector-effect="non-scaling-stroke" d="
  M 495.13 414.08
  A 0.33 0.33 0.0 0 0 495.43 414.53
  L 505.01 414.63
  A 0.33 0.33 0.0 0 0 505.32 414.18
  L 500.67 401.43
  A 0.33 0.33 0.0 0 0 500.05 401.42
  L 495.13 414.08"
/>
<path stroke="#9796bb" vector-effect="non-scaling-stroke" d="
  M 412.7629 397.0602
  A 13.92 13.05 -89.7 0 0 399.6402 410.9117
  A 13.92 13.05 -89.7 0 0 412.6171 424.8998
  A 13.92 13.05 -89.7 0 0 425.7398 411.0483
  A 13.92 13.05 -89.7 0 0 412.7629 397.0602"
/>
</g>
<path fill="#ffffff" d="
  M 600.00 0.00
  L 600.00 600.00
  L 0.00 600.00
  L 0.00 0.00
  L 600.00 0.00
  Z
  M 113.46 329.03
  A 0.96 0.95 -26.2 0 0 112.32 328.65
  Q 91.87 336.39 78.55 353.29
  C 71.05 362.80 66.92 372.70 64.99 384.50
  Q 60.59 411.40 76.05 432.76
  C 88.97 450.60 108.38 462.03 129.41 467.36
  Q 156.15 474.14 180.62 461.93
  Q 202.02 451.25 212.03 429.80
  C 224.30 403.53 221.11 376.70 208.32 351.15
  Q 180.24 295.05 175.99 286.74
  C 169.99 274.99 167.09 263.93 172.67 251.20
  Q 180.93 232.35 200.51 227.79
  C 221.78 222.83 248.15 240.26 249.14 262.82
  C 249.36 267.80 248.39 272.28 246.39 277.22
  A 1.13 1.12 22.9 0 0 246.98 278.66
  L 248.40 279.30
  A 0.80 0.79 -65.5 0 0 249.45 278.90
  L 265.49 243.22
  A 0.57 0.56 -66.0 0 0 265.21 242.48
  C 258.92 239.56 254.60 237.85 249.54 234.06
  Q 239.94 226.87 226.85 221.00
  C 198.25 208.17 168.49 219.48 154.22 246.75
  Q 142.22 269.68 153.71 293.09
  Q 159.53 304.95 188.60 363.12
  C 198.60 383.12 200.05 409.04 186.90 428.11
  C 177.54 441.67 165.72 450.49 149.81 453.07
  Q 135.02 455.47 121.50 451.48
  C 99.86 445.09 83.37 431.78 75.73 409.96
  C 64.62 378.26 86.68 346.05 114.16 331.83
  A 0.83 0.83 0.0 0 0 114.48 330.66
  L 113.46 329.03
  Z
  M 362.68 404.93
  C 360.90 403.41 359.25 404.21 357.25 404.72
  A 1.44 1.40 -38.0 0 1 356.26 404.61
  Q 354.22 403.57 351.51 404.33
  A 0.32 0.31 81.5 0 1 351.11 404.03
  Q 351.00 399.50 350.16 394.33
  C 349.39 389.58 343.47 390.77 343.42 395.50
  C 343.36 401.26 344.28 407.25 344.00 413.17
  A 0.34 0.33 -66.4 0 1 343.43 413.40
  Q 343.42 413.39 339.53 409.38
  C 337.15 406.93 333.33 408.13 333.28 411.72
  A 2.93 2.91 29.4 0 0 333.73 413.31
  L 346.47 433.70
  A 2.49 2.48 -14.0 0 0 348.40 434.86
  C 352.10 435.10 361.16 435.98 364.11 433.24
  Q 366.89 430.65 367.66 427.41
  Q 368.65 423.30 369.84 414.18
  C 370.15 411.81 369.89 409.71 370.38 407.47
  C 371.07 404.33 371.15 400.03 370.91 397.28
  A 2.45 2.44 -88.4 0 0 368.83 395.07
  Q 364.58 394.43 364.00 398.80
  Q 363.61 401.78 363.14 404.76
  A 0.28 0.28 0.0 0 1 362.68 404.93
  Z
  M 388.74 412.87
  Q 388.74 421.36 382.68 428.67
  A 1.46 1.45 -80.2 0 0 384.30 430.97
  Q 386.18 430.28 387.26 428.47
  Q 392.09 420.32 392.09 412.87
  Q 392.09 405.41 387.24 397.27
  Q 386.17 395.46 384.29 394.77
  A 1.46 1.45 80.2 0 0 382.67 397.06
  Q 388.73 404.37 388.74 412.87
  Z
  M 326.30 396.64
  L 319.50 396.64
  A 0.10 0.10 0.0 0 0 319.40 396.75
  L 319.42 397.01
  A 0.18 0.18 0.0 0 0 319.60 397.18
  Q 322.15 397.22 322.14 399.97
  Q 322.12 413.29 322.13 419.09
  A 0.49 0.49 0.0 0 1 321.28 419.42
  L 299.39 395.69
  A 0.21 0.21 0.0 0 0 299.03 395.84
  Q 299.28 407.20 299.17 420.58
  C 299.14 423.59 299.29 424.18 296.55 424.99
  A 0.18 0.18 0.0 0 0 296.60 425.35
  L 303.63 425.40
  A 0.19 0.19 0.0 0 0 303.80 425.12
  L 303.77 425.06
  A 0.22 0.22 0.0 0 0 303.56 424.84
  Q 301.95 424.72 301.40 423.70
  A 2.86 2.85 -59.4 0 1 301.05 422.33
  L 301.05 402.79
  A 0.53 0.53 0.0 0 1 301.97 402.43
  L 323.56 425.81
  A 0.30 0.30 0.0 0 0 324.08 425.60
  Q 323.72 416.69 323.92 399.36
  Q 323.94 398.02 324.43 397.90
  Q 325.18 397.71 326.41 397.31
  A 0.34 0.34 0.0 0 0 326.30 396.64
  Z
  M 486.03 424.81
  A 0.31 0.31 0.0 0 0 486.09 425.43
  L 492.57 425.43
  A 0.28 0.28 0.0 0 0 492.78 424.96
  L 491.75 423.84
  A 1.06 1.05 35.7 0 1 491.56 422.70
  L 494.51 416.13
  A 0.71 0.71 0.0 0 1 495.16 415.71
  L 505.42 415.71
  A 0.75 0.74 78.8 0 1 506.11 416.18
  L 508.78 422.86
  A 0.56 0.35 46.1 0 1 508.82 423.05
  Q 508.83 424.07 507.50 424.80
  A 0.33 0.33 0.0 0 0 507.66 425.42
  L 515.39 425.42
  A 0.21 0.21 0.0 0 0 515.43 425.00
  Q 512.89 424.53 512.16 422.81
  Q 504.01 403.56 500.99 396.01
  A 0.31 0.31 0.0 0 0 500.42 396.01
  Q 495.46 408.13 489.75 421.45
  C 488.86 423.54 488.19 424.38 486.03 424.81
  Z
  M 274.03 404.04
  L 273.71 399.77
  A 1.62 1.61 11.2 0 0 272.82 398.45
  Q 264.73 394.43 257.82 396.85
  C 250.82 399.31 247.80 405.39 248.30 412.59
  C 249.09 423.98 260.40 428.56 270.18 424.63
  Q 273.16 423.43 274.81 421.38
  A 2.73 2.62 70.4 0 0 275.37 420.14
  Q 275.39 420.02 275.41 414.25
  Q 275.41 412.80 276.90 412.08
  A 0.18 0.18 0.0 0 0 276.82 411.74
  L 270.84 411.74
  A 0.18 0.18 0.0 0 0 270.76 412.09
  L 271.76 412.54
  A 1.71 1.70 -78.0 0 1 272.77 414.10
  L 272.77 419.99
  A 2.49 2.49 0.0 0 1 271.60 422.10
  Q 265.50 425.88 260.04 424.30
  C 251.69 421.88 249.53 411.81 252.47 404.64
  Q 255.66 396.89 264.23 397.30
  Q 271.36 397.64 273.74 404.11
  A 0.15 0.15 0.0 0 0 274.03 404.04
  Z
  M 396.3902 410.9245
  A 16.32 15.18 -179.7 0 0 412.6305 426.1898
  A 16.32 15.18 -179.7 0 0 429.0298 411.0955
  A 16.32 15.18 -179.7 0 0 412.7895 395.8302
  A 16.32 15.18 -179.7 0 0 396.3902 410.9245
  Z
  M 221.17 397.16
  L 222.44 398.53
  A 1.65 1.63 -65.6 0 1 222.87 399.69
  Q 222.82 401.41 222.83 421.94
  C 222.84 423.73 222.11 424.40 220.53 424.83
  A 0.31 0.31 0.0 0 0 220.61 425.43
  L 228.14 425.43
  A 0.28 0.28 0.0 0 0 228.18 424.87
  C 225.16 424.41 225.63 422.16 225.64 419.55
  Q 225.68 409.92 225.64 399.71
  Q 225.63 397.42 228.10 397.16
  A 0.23 0.22 87.3 0 0 228.30 396.93
  L 228.30 396.62
  A 0.06 0.05 -90.0 0 0 228.25 396.56
  L 221.44 396.56
  A 0.36 0.36 0.0 0 0 221.17 397.16
  Z
  M 443.99 396.98
  L 446.54 398.12
  A 1.31 1.30 0.8 0 1 447.21 398.80
  L 459.12 425.93
  A 0.32 0.32 0.0 0 0 459.70 425.93
  Q 464.21 415.35 470.54 401.51
  C 471.56 399.26 471.89 397.67 474.67 397.02
  A 0.23 0.23 0.0 0 0 474.62 396.57
  L 467.76 396.57
  A 0.30 0.30 0.0 0 0 467.64 397.14
  Q 469.72 398.01 468.66 400.40
  Q 466.39 405.56 460.22 420.60
  A 0.41 0.41 0.0 0 1 459.46 420.59
  L 450.85 399.07
  A 1.23 1.23 0.0 0 1 451.50 397.48
  L 452.31 397.12
  A 0.29 0.29 0.0 0 0 452.19 396.57
  L 444.08 396.57
  A 0.22 0.21 -32.7 0 0 443.99 396.98
  Z
  M 382.01 413.01
  C 382.00 416.76 380.01 420.70 377.87 423.92
  A 1.27 1.27 0.0 0 0 378.41 425.78
  L 378.50 425.82
  A 1.97 1.96 -58.6 0 0 380.83 425.25
  C 384.06 421.23 385.01 417.71 385.02 413.01
  C 385.03 408.31 384.09 404.79 380.87 400.76
  A 1.97 1.96 58.8 0 0 378.55 400.18
  L 378.46 400.22
  A 1.27 1.27 0.0 0 0 377.91 402.08
  C 380.04 405.30 382.01 409.25 382.01 413.01
  Z
  M 375.27 413.09
  C 375.26 415.11 374.25 416.79 373.31 418.46
  A 1.52 1.46 -80.9 0 0 374.86 420.69
  C 377.28 420.14 378.70 414.76 378.71 413.11
  C 378.72 411.45 377.35 406.05 374.94 405.48
  A 1.52 1.46 81.5 0 0 373.37 407.70
  C 374.29 409.38 375.29 411.07 375.27 413.09
  Z"
/>
<path fill="#2e2c77" d="
  M 113.46 329.03
  L 114.48 330.66
  A 0.83 0.83 0.0 0 1 114.16 331.83
  C 86.68 346.05 64.62 378.26 75.73 409.96
  C 83.37 431.78 99.86 445.09 121.50 451.48
  Q 135.02 455.47 149.81 453.07
  C 165.72 450.49 177.54 441.67 186.90 428.11
  C 200.05 409.04 198.60 383.12 188.60 363.12
  Q 159.53 304.95 153.71 293.09
  Q 142.22 269.68 154.22 246.75
  C 168.49 219.48 198.25 208.17 226.85 221.00
  Q 239.94 226.87 249.54 234.06
  C 254.60 237.85 258.92 239.56 265.21 242.48
  A 0.57 0.56 -66.0 0 1 265.49 243.22
  L 249.45 278.90
  A 0.80 0.79 -65.5 0 1 248.40 279.30
  L 246.98 278.66
  A 1.13 1.12 22.9 0 1 246.39 277.22
  C 248.39 272.28 249.36 267.80 249.14 262.82
  C 248.15 240.26 221.78 222.83 200.51 227.79
  Q 180.93 232.35 172.67 251.20
  C 167.09 263.93 169.99 274.99 175.99 286.74
  Q 180.24 295.05 208.32 351.15
  C 221.11 376.70 224.30 403.53 212.03 429.80
  Q 202.02 451.25 180.62 461.93
  Q 156.15 474.14 129.41 467.36
  C 108.38 462.03 88.97 450.60 76.05 432.76
  Q 60.59 411.40 64.99 384.50
  C 66.92 372.70 71.05 362.80 78.55 353.29
  Q 91.87 336.39 112.32 328.65
  A 0.96 0.95 -26.2 0 1 113.46 329.03
  Z"
/>
<path fill="#2e2c77" d="
  M 362.68 404.93
  A 0.28 0.28 0.0 0 0 363.14 404.76
  Q 363.61 401.78 364.00 398.80
  Q 364.58 394.43 368.83 395.07
  A 2.45 2.44 -88.4 0 1 370.91 397.28
  C 371.15 400.03 371.07 404.33 370.38 407.47
  C 369.89 409.71 370.15 411.81 369.84 414.18
  Q 368.65 423.30 367.66 427.41
  Q 366.89 430.65 364.11 433.24
  C 361.16 435.98 352.10 435.10 348.40 434.86
  A 2.49 2.48 -14.0 0 1 346.47 433.70
  L 333.73 413.31
  A 2.93 2.91 29.4 0 1 333.28 411.72
  C 333.33 408.13 337.15 406.93 339.53 409.38
  Q 343.42 413.39 343.43 413.40
  A 0.34 0.33 -66.4 0 0 344.00 413.17
  C 344.28 407.25 343.36 401.26 343.42 395.50
  C 343.47 390.77 349.39 389.58 350.16 394.33
  Q 351.00 399.50 351.11 404.03
  A 0.32 0.31 81.5 0 0 351.51 404.33
  Q 354.22 403.57 356.26 404.61
  A 1.44 1.40 -38.0 0 0 357.25 404.72
  C 359.25 404.21 360.90 403.41 362.68 404.93
  Z
  M 356.07 418.74
  Q 353.05 421.26 350.53 417.98
  A 2.17 2.17 0.0 0 1 350.09 416.83
  L 348.37 394.34
  A 1.04 1.04 0.0 0 0 347.25 393.38
  L 346.74 393.42
  A 1.36 1.35 -3.1 0 0 345.49 394.81
  L 346.12 414.68
  A 3.09 3.06 -74.9 0 0 347.55 417.19
  C 350.19 418.87 353.17 421.13 353.01 424.33
  A 0.82 0.82 0.0 0 1 351.39 424.45
  C 350.64 420.57 346.23 419.30 343.78 416.64
  Q 339.98 412.52 337.53 410.39
  A 1.39 1.38 -77.9 0 0 335.30 411.84
  Q 335.34 411.97 336.07 413.19
  Q 339.24 418.45 342.00 423.00
  C 343.83 426.02 346.25 428.63 347.93 432.03
  A 1.53 1.53 0.0 0 0 349.20 432.88
  Q 352.32 433.10 358.60 432.93
  C 362.26 432.83 364.62 430.78 365.49 427.70
  C 366.74 423.30 367.87 415.73 368.11 409.41
  Q 368.20 407.03 368.91 403.37
  A 4.67 4.61 51.0 0 0 369.00 402.46
  L 368.99 397.99
  A 1.17 1.17 0.0 0 0 367.12 397.06
  Q 366.29 397.68 366.05 399.02
  Q 364.70 406.60 364.03 414.37
  Q 363.74 417.75 363.06 418.54
  C 361.13 420.79 359.13 419.87 356.97 418.66
  A 0.80 0.79 39.7 0 0 356.07 418.74
  Z
  M 355.7382 407.4571
  A 1.71 1.71 0.0 0 0 354.0074 405.7681
  L 353.6274 405.7728
  A 1.71 1.71 0.0 0 0 351.9385 407.5035
  L 352.0418 415.9629
  A 1.71 1.71 0.0 0 0 353.7726 417.6519
  L 354.1526 417.6472
  A 1.71 1.71 0.0 0 0 355.8415 415.9165
  L 355.7382 407.4571
  Z
  M 361.9623 407.9860
  A 1.93 1.93 0.0 0 0 360.0189 406.0695
  L 359.8389 406.0708
  A 1.93 1.93 0.0 0 0 357.9224 408.0142
  L 357.9777 415.9340
  A 1.93 1.93 0.0 0 0 359.9211 417.8505
  L 360.1011 417.8492
  A 1.93 1.93 0.0 0 0 362.0176 415.9058
  L 361.9623 407.9860
  Z"
/>
<path fill="#ffffff" d="
  M 356.97 418.66
  C 359.13 419.87 361.13 420.79 363.06 418.54
  Q 363.74 417.75 364.03 414.37
  Q 364.70 406.60 366.05 399.02
  Q 366.29 397.68 367.12 397.06
  A 1.17 1.17 0.0 0 1 368.99 397.99
  L 369.00 402.46
  A 4.67 4.61 51.0 0 1 368.91 403.37
  Q 368.20 407.03 368.11 409.41
  C 367.87 415.73 366.74 423.30 365.49 427.70
  C 364.62 430.78 362.26 432.83 358.60 432.93
  Q 352.32 433.10 349.20 432.88
  A 1.53 1.53 0.0 0 1 347.93 432.03
  C 346.25 428.63 343.83 426.02 342.00 423.00
  Q 339.24 418.45 336.07 413.19
  Q 335.34 411.97 335.30 411.84
  A 1.39 1.38 -77.9 0 1 337.53 410.39
  Q 339.98 412.52 343.78 416.64
  C 346.23 419.30 350.64 420.57 351.39 424.45
  A 0.82 0.82 0.0 0 0 353.01 424.33
  C 353.17 421.13 350.19 418.87 347.55 417.19
  A 3.09 3.06 -74.9 0 1 346.12 414.68
  L 345.49 394.81
  A 1.36 1.35 -3.1 0 1 346.74 393.42
  L 347.25 393.38
  A 1.04 1.04 0.0 0 1 348.37 394.34
  L 350.09 416.83
  A 2.17 2.17 0.0 0 0 350.53 417.98
  Q 353.05 421.26 356.07 418.74
  A 0.80 0.79 39.7 0 1 356.97 418.66
  Z"
/>
<path fill="#fe7414" d="
  M 392.09 412.87
  Q 392.09 420.32 387.26 428.47
  Q 386.18 430.28 384.30 430.97
  A 1.46 1.45 -80.2 0 1 382.68 428.67
  Q 388.74 421.36 388.74 412.87
  Q 388.73 404.37 382.67 397.06
  A 1.46 1.45 80.2 0 1 384.29 394.77
  Q 386.17 395.46 387.24 397.27
  Q 392.09 405.41 392.09 412.87
  Z"
/>
<path fill="#2e2c77" d="
  M 326.41 397.31
  Q 325.18 397.71 324.43 397.90
  Q 323.94 398.02 323.92 399.36
  Q 323.72 416.69 324.08 425.60
  A 0.30 0.30 0.0 0 1 323.56 425.81
  L 301.97 402.43
  A 0.53 0.53 0.0 0 0 301.05 402.79
  L 301.05 422.33
  A 2.86 2.85 -59.4 0 0 301.40 423.70
  Q 301.95 424.72 303.56 424.84
  A 0.22 0.22 0.0 0 1 303.77 425.06
  L 303.80 425.12
  A 0.19 0.19 0.0 0 1 303.63 425.40
  L 296.60 425.35
  A 0.18 0.18 0.0 0 1 296.55 424.99
  C 299.29 424.18 299.14 423.59 299.17 420.58
  Q 299.28 407.20 299.03 395.84
  A 0.21 0.21 0.0 0 1 299.39 395.69
  L 321.28 419.42
  A 0.49 0.49 0.0 0 0 322.13 419.09
  Q 322.12 413.29 322.14 399.97
  Q 322.15 397.22 319.60 397.18
  A 0.18 0.18 0.0 0 1 319.42 397.01
  L 319.40 396.75
  A 0.10 0.10 0.0 0 1 319.50 396.64
  L 326.30 396.64
  A 0.34 0.34 0.0 0 1 326.41 397.31
  Z"
/>
<path fill="#2e2c77" d="
  M 486.03 424.81
  C 488.19 424.38 488.86 423.54 489.75 421.45
  Q 495.46 408.13 500.42 396.01
  A 0.31 0.31 0.0 0 1 500.99 396.01
  Q 504.01 403.56 512.16 422.81
  Q 512.89 424.53 515.43 425.00
  A 0.21 0.21 0.0 0 1 515.39 425.42
  L 507.66 425.42
  A 0.33 0.33 0.0 0 1 507.50 424.80
  Q 508.83 424.07 508.82 423.05
  A 0.56 0.35 46.1 0 0 508.78 422.86
  L 506.11 416.18
  A 0.75 0.74 78.8 0 0 505.42 415.71
  L 495.16 415.71
  A 0.71 0.71 0.0 0 0 494.51 416.13
  L 491.56 422.70
  A 1.06 1.05 35.7 0 0 491.75 423.84
  L 492.78 424.96
  A 0.28 0.28 0.0 0 1 492.57 425.43
  L 486.09 425.43
  A 0.31 0.31 0.0 0 1 486.03 424.81
  Z
  M 495.13 414.08
  A 0.33 0.33 0.0 0 0 495.43 414.53
  L 505.01 414.63
  A 0.33 0.33 0.0 0 0 505.32 414.18
  L 500.67 401.43
  A 0.33 0.33 0.0 0 0 500.05 401.42
  L 495.13 414.08
  Z"
/>
<path fill="#2e2c77" d="
  M 274.03 404.04
  A 0.15 0.15 0.0 0 1 273.74 404.11
  Q 271.36 397.64 264.23 397.30
  Q 255.66 396.89 252.47 404.64
  C 249.53 411.81 251.69 421.88 260.04 424.30
  Q 265.50 425.88 271.60 422.10
  A 2.49 2.49 0.0 0 0 272.77 419.99
  L 272.77 414.10
  A 1.71 1.70 -78.0 0 0 271.76 412.54
  L 270.76 412.09
  A 0.18 0.18 0.0 0 1 270.84 411.74
  L 276.82 411.74
  A 0.18 0.18 0.0 0 1 276.90 412.08
  Q 275.41 412.80 275.41 414.25
  Q 275.39 420.02 275.37 420.14
  A 2.73 2.62 70.4 0 1 274.81 421.38
  Q 273.16 423.43 270.18 424.63
  C 260.40 428.56 249.09 423.98 248.30 412.59
  C 247.80 405.39 250.82 399.31 257.82 396.85
  Q 264.73 394.43 272.82 398.45
  A 1.62 1.61 11.2 0 1 273.71 399.77
  L 274.03 404.04
  Z"
/>
<path fill="#2e2c77" d="
  M 396.3902 410.9245
  A 16.32 15.18 -179.7 0 1 412.7895 395.8302
  A 16.32 15.18 -179.7 0 1 429.0298 411.0955
  A 16.32 15.18 -179.7 0 1 412.6305 426.1898
  A 16.32 15.18 -179.7 0 1 396.3902 410.9245
  Z
  M 412.7629 397.0602
  A 13.92 13.05 -89.7 0 0 399.6402 410.9117
  A 13.92 13.05 -89.7 0 0 412.6171 424.8998
  A 13.92 13.05 -89.7 0 0 425.7398 411.0483
  A 13.92 13.05 -89.7 0 0 412.7629 397.0602
  Z"
/>
<path fill="#2e2c77" d="
  M 221.17 397.16
  A 0.36 0.36 0.0 0 1 221.44 396.56
  L 228.25 396.56
  A 0.06 0.05 -90.0 0 1 228.30 396.62
  L 228.30 396.93
  A 0.23 0.22 87.3 0 1 228.10 397.16
  Q 225.63 397.42 225.64 399.71
  Q 225.68 409.92 225.64 419.55
  C 225.63 422.16 225.16 424.41 228.18 424.87
  A 0.28 0.28 0.0 0 1 228.14 425.43
  L 220.61 425.43
  A 0.31 0.31 0.0 0 1 220.53 424.83
  C 222.11 424.40 222.84 423.73 222.83 421.94
  Q 222.82 401.41 222.87 399.69
  A 1.65 1.63 -65.6 0 0 222.44 398.53
  L 221.17 397.16
  Z"
/>
<path fill="#2e2c77" d="
  M 444.08 396.57
  L 452.19 396.57
  A 0.29 0.29 0.0 0 1 452.31 397.12
  L 451.50 397.48
  A 1.23 1.23 0.0 0 0 450.85 399.07
  L 459.46 420.59
  A 0.41 0.41 0.0 0 0 460.22 420.60
  Q 466.39 405.56 468.66 400.40
  Q 469.72 398.01 467.64 397.14
  A 0.30 0.30 0.0 0 1 467.76 396.57
  L 474.62 396.57
  A 0.23 0.23 0.0 0 1 474.67 397.02
  C 471.89 397.67 471.56 399.26 470.54 401.51
  Q 464.21 415.35 459.70 425.93
  A 0.32 0.32 0.0 0 1 459.12 425.93
  L 447.21 398.80
  A 1.31 1.30 0.8 0 0 446.54 398.12
  L 443.99 396.98
  A 0.22 0.21 -32.7 0 1 444.08 396.57
  Z"
/>
<ellipse fill="#ffffff" cx="0.00" cy="0.00" transform="translate(412.69,410.98) rotate(-89.7)" rx="13.92" ry="13.05"/>
<path fill="#fe7414" d="
  M 385.02 413.01
  C 385.01 417.71 384.06 421.23 380.83 425.25
  A 1.97 1.96 -58.6 0 1 378.50 425.82
  L 378.41 425.78
  A 1.27 1.27 0.0 0 1 377.87 423.92
  C 380.01 420.70 382.00 416.76 382.01 413.01
  C 382.01 409.25 380.04 405.30 377.91 402.08
  A 1.27 1.27 0.0 0 1 378.46 400.22
  L 378.55 400.18
  A 1.97 1.96 58.8 0 1 380.87 400.76
  C 384.09 404.79 385.03 408.31 385.02 413.01
  Z"
/>
<path fill="#ffffff" d="
  M 495.13 414.08
  L 500.05 401.42
  A 0.33 0.33 0.0 0 1 500.67 401.43
  L 505.32 414.18
  A 0.33 0.33 0.0 0 1 505.01 414.63
  L 495.43 414.53
  A 0.33 0.33 0.0 0 1 495.13 414.08
  Z"
/>
<path fill="#fe7414" d="
  M 378.71 413.11
  C 378.70 414.76 377.28 420.14 374.86 420.69
  A 1.52 1.46 -80.9 0 1 373.31 418.46
  C 374.25 416.79 375.26 415.11 375.27 413.09
  C 375.29 411.07 374.29 409.38 373.37 407.70
  A 1.52 1.46 81.5 0 1 374.94 405.48
  C 377.35 406.05 378.72 411.45 378.71 413.11
  Z"
/>
<rect fill="#ffffff" x="-1.90" y="-5.94" transform="translate(353.89,411.71) rotate(-0.7)" width="3.80" height="11.88" rx="1.71"/>
<rect fill="#ffffff" x="-2.02" y="-5.89" transform="translate(359.97,411.96) rotate(-0.4)" width="4.04" height="11.78" rx="1.93"/>
</svg>
