<svg xmlns="http://www.w3.org/2000/svg" viewBox="0 0 200 100">
  <!-- Visa Background -->
  <rect width="200" height="100" rx="10" fill="#FFFFFF" stroke="#E6E6E6" stroke-width="1"/>
  
  <!-- Visa Logo -->
  <path d="M80 40l-10 25h-10l-5-20c-0.3-1.2-0.6-1.6-1.5-2.1-1.5-0.8-4-1.5-6.2-2l0.1-0.9h10.7c1.4 0 2.6 0.9 2.9 2.5l2.6 14 6.5-16.5h10.9zm45 25h-9l-0.8-10c-2.7 3.3-5.8 5.5-9.2 5.5-4.8 0-8-3.7-6.4-9.3 2.3-8.2 10.2-8.3 16.3-5.1l0.8-2.8c0.9-3.2-1.3-4.5-4.9-4.5-4 0-7.3 0.9-10.5 2.1l1.2-6.8c4-1 7.5-1.8 11.3-1.8 7.3 0 12 3.2 10.2 11.3l-3.5 12.4c-0.5 1.9-0.3 3.5 0.3 5.1l-0.3 0.1c-1.5 1.3-3.2 2.8-5.5 3.8zm-8.5-15.5c-3.5-1.5-7.1-0.9-8 2.3-0.8 2.9 1.3 4.3 4.1 4.3 2.9 0 5.5-2.8 6.3-5.2l0.6-2.2-3 0.8zm-20.5 15.5h-10l5.8-20.5-2.8-15.5h10l-0.3 3.5 0.1 0.1c2.2-2.8 5.3-4.1 8.4-4.1 6.3 0 8.7 4.7 7.3 10.1l-4.8 16.9h-10l4.4-15.5c0.7-2.5 0.4-4.2-2.2-4.2-2.3 0-4.8 1.5-5.9 5.4l-4 14.3z" fill="#1434CB"/>
</svg>